<?xml version="1.0" encoding="UTF-8"?>
<svg width="700pt" height="700pt" version="1.1" viewBox="0 0 700 700" xmlns="http://www.w3.org/2000/svg">
 <path d="m247.87 99.363 92.316-53.293c5.9062-3.418 13.18-3.418 19.059 0l261.62 151.05c5.9062 3.418 9.543 9.707 9.543 16.516v302.09c0 6.8086-3.6367 13.098-9.543 16.516l-261.62 151.05c-5.9062 3.418-13.18 3.418-19.059 0l-261.62-151.05c-5.9062-3.418-9.543-9.707-9.543-16.516v-302.09c0-6.8086 3.6367-13.098 9.543-16.516l115.47-66.664c3.4453-10.008 17.254-33.906 17.773-49.082 1.3672-40.059-39.266-34.125-38.746-14.082 0.95703 37.953-35.902 24.637-39.703 3.9648-6.6172-36.039 46.074-74.836 87.613-49.629 30.16 18.32 33.004 59.145 26.906 77.715zm295.5 74.949c0.19141 0.35547 0.41016 0.71094 0.68359 1.0117l-184.81-106.7c-5.9062-3.418-13.18-3.418-19.059 0l-223.01 128.77c-5.9062 3.418-9.543 9.707-9.543 16.516s3.6367 13.098 9.543 16.516l152.5 88.047-0.24609 0.38281 44.898 25.977 0.27344-0.4375 25.621 14.793c5.9062 3.418 13.18 3.418 19.059 0l0.32812-0.19141 35.574-97.48c2.0781-5.6875 7.2734-9.6797 13.316-10.199 6.043-0.51953 11.84 2.5156 14.875 7.7656l27.207 47.359 41.59-24.008 32.648-97.098c1.4219-4.1836 5.0859-7.1914 9.4609-7.7656 4.375-0.57422 8.6953 1.4219 11.129 5.0859l32.949 50.012 3.9375-2.2695c5.9062-3.418 9.543-9.707 9.543-16.516 0-6.4531-3.2539-12.441-8.6133-15.941 0.27344 0.054688 0.51953 0.082032 0.79297 0.10938l-40.605-23.734zm-281.66 155.84-0.10938 307.45 45.008 25.812-0.13672-306.68 0.054688-0.082031-44.816-26.469zm331.51-148.32c-0.41016-0.57422-0.92969-1.0938-1.5859-1.4766l-36.531-21.082c-0.62891-0.35547-1.3125-0.57422-1.9961-0.62891l40.086 23.188zm-83.152 288.86 0.79297-4.0195c0.54688-2.7617-0.46484-5.5781-2.625-7.3828-2.1602-1.8047-5.1406-2.2695-7.7383-1.2031l-2.8984 1.1758c-1.8867 0.76562-3.3906 2.2148-4.1836 4.0742s-0.82031 3.9648-0.054688 5.8516l1.2031 2.9531c1.3398 3.3359 4.7031 5.3867 8.2852 5.0586 3.582-0.32812 6.5078-2.9805 7.2188-6.5078zm71.562-12.141c-0.57422-0.98438-1.8047-1.3125-2.7891-0.73828l-43.395 25.047c-0.98438 0.57422-1.3125 1.8047-0.73828 2.7891 0.57422 0.98438 1.8047 1.3125 2.7891 0.73828l43.395-25.047c0.98438-0.57422 1.3125-1.8047 0.73828-2.7891zm0-10.855c-0.57422-0.98438-1.8047-1.3125-2.7891-0.73828l-43.395 25.047c-0.98438 0.57422-1.3125 1.8047-0.73828 2.7891 0.57422 0.98438 1.8047 1.3125 2.7891 0.73828l43.395-25.047c0.98438-0.57422 1.3125-1.8047 0.73828-2.7891zm-32.238-83.012c-8.2578 0-14.984 17.309-14.984 38.637s6.6992 38.637 14.984 38.637c8.2578 0 14.984-17.309 14.984-38.637s-6.6992-38.637-14.984-38.637zm-84.734 154.09c-0.57422-0.98438-1.8047-1.3125-2.7891-0.73828l-43.395 25.047c-0.98437 0.57422-1.3125 1.8047-0.73828 2.7891s1.8047 1.3125 2.7891 0.73828l43.395-25.047c0.98438-0.57422 1.3125-1.8047 0.73828-2.7891zm116.98-48.672c-0.57422-0.98437-1.8047-1.3125-2.7891-0.73828l-43.395 25.047c-0.98438 0.57422-1.3125 1.8047-0.73828 2.7891 0.57422 0.98438 1.8047 1.3125 2.7891 0.73828l43.395-25.047c0.98437-0.57422 1.3125-1.8047 0.73828-2.7891zm-149.21-47.496c-8.2578 0-14.984 17.309-14.984 38.637 0 21.328 6.6992 38.637 14.984 38.637 8.2578 0 14.984-17.309 14.984-38.637 0-21.328-6.6992-38.637-14.984-38.637zm32.238 85.316c-0.57422-0.98438-1.8047-1.3125-2.7891-0.73828l-43.395 25.047c-0.98438 0.57422-1.3125 1.8047-0.73828 2.7891 0.57422 0.98438 1.8047 1.3125 2.7891 0.73828l43.395-25.047c0.98438-0.57422 1.3125-1.8047 0.73828-2.7891zm0 22.422c-0.57422-0.98438-1.8047-1.3125-2.7891-0.73828l-43.395 25.047c-0.98438 0.57422-1.3125 1.8047-0.73828 2.7891 0.57422 0.98438 1.8047 1.3125 2.7891 0.73828l43.395-25.047c0.98438-0.57422 1.3125-1.8047 0.73828-2.7891z" fill-rule="evenodd"/>
 <path d="m249.49 97.344 90.238-52.09c6.207-3.582 13.836-3.582 20.016 0l261.62 151.05c6.207 3.582 10.008 10.199 10.008 17.336v302.09c0 7.1641-3.8281 13.754-10.008 17.336l-261.62 151.05c-6.207 3.582-13.836 3.582-20.016 0l-261.62-151.05c-6.207-3.582-10.008-10.199-10.008-17.336v-302.09c0-7.1641 3.8281-13.754 10.008-17.336 0 0 115.14-66.5 115.14-66.473 2.1602-6.0703 7.8477-16.898 12.195-27.836 2.8984-7.3008 5.2227-14.656 5.4414-20.617 0.38281-10.883-2.4062-18.266-6.6445-22.832-6.2344-6.6992-15.641-7.1914-22.312-3.7188-4.6758 2.4336-8.0391 6.8633-7.9023 12.496 0.30078 11.84-3.0352 18.812-7.8203 22.312-4.5391 3.3086-10.473 3.5-16.105 1.5039-8.3125-2.9258-15.996-10.609-17.664-19.633-2.707-14.711 4.2383-29.914 16.297-41.18 18.02-16.816 47.414-24.801 72.738-9.4336 29.395 17.855 33.223 56.766 28 76.512zm-1.5859 2.0234c6.0703-18.566 3.2539-59.391-26.906-77.715-41.535-25.238-94.227 13.562-87.613 49.629 3.8008 20.672 40.66 33.988 39.703-3.9648-0.51953-20.043 40.113-25.977 38.746 14.082-0.51953 15.148-14.355 39.074-17.773 49.082l-115.47 66.664c-5.9062 3.418-9.543 9.707-9.543 16.516v302.09c0 6.8086 3.6367 13.098 9.543 16.516l261.62 151.05c5.9062 3.418 13.18 3.418 19.059 0l261.62-151.05c5.9062-3.418 9.543-9.707 9.543-16.516v-302.09c0-6.8086-3.6367-13.098-9.543-16.516l-261.62-151.05c-5.9062-3.418-13.18-3.418-19.059 0l-92.316 53.293zm58.598 258.29 0.13672 305.73-45.008-25.812 0.10938-307.45 44.816 26.469-0.054688 0.082031zm0 0-0.054688-0.082032c-0.13672-0.027343-0.27344-0.054687-0.38281-0.13672l-0.35547-0.21875c0.16406 0.24609 0.46484 0.4375 0.79297 0.4375zm-0.95703-0.51953-42.848-25.32-0.10937 305.21 43.094 24.719zm276.14 90.566c0.57422 0.98438 0.21875 2.2148-0.73828 2.7891l-43.395 25.047c-0.98438 0.57422-2.2148 0.21875-2.7891-0.73828-0.57422-0.98438-0.21875-2.2422 0.73828-2.7891l43.395-25.047c0.98437-0.57422 2.2148-0.21875 2.7891 0.73828zm-0.82031 0.46484c-0.30078-0.51953-0.95703-0.68359-1.4766-0.41016l-43.395 25.047c-0.51953 0.30078-0.71094 0.95703-0.41016 1.4766 0.30078 0.51953 0.95703 0.71094 1.4766 0.41016l43.395-25.047c0.51953-0.30078 0.68359-0.95703 0.41016-1.4766zm-148.39-25.566c8.2578 0 14.984 17.309 14.984 38.637s-6.6992 38.637-14.984 38.637c-8.2578 0-14.984-17.309-14.984-38.637s6.6992-38.637 14.984-38.637zm0 0.95703c-3.0352 0-5.7148 2.6523-7.9844 6.9453-3.6641 6.918-6.0156 18.129-6.0156 30.734s2.3516 23.789 6.0156 30.734c2.2695 4.293 4.9766 6.9453 7.9844 6.9453 3.0352 0 5.7148-2.6523 7.9844-6.9453 3.6641-6.918 6.0156-18.129 6.0156-30.734s-2.3516-23.789-6.0156-30.734c-2.2695-4.293-4.9766-6.9453-7.9844-6.9453zm32.238 84.355c0.57422 0.98438 0.21875 2.2148-0.73828 2.7891l-43.395 25.047c-0.98438 0.57422-2.2148 0.21875-2.7891-0.73828-0.57422-0.98437-0.21875-2.2422 0.73828-2.7891l43.395-25.047c0.98438-0.57422 2.2148-0.21875 2.7891 0.73828zm-0.82031 0.46484c-0.30078-0.51953-0.95703-0.68359-1.4766-0.41016l-43.395 25.047c-0.51953 0.30078-0.68359 0.95703-0.41016 1.4766 0.30078 0.51953 0.95703 0.71094 1.4766 0.41016l43.395-25.047c0.51953-0.30078 0.71094-0.95703 0.41016-1.4766zm117.8-38.281c0.57422 0.98438 0.21875 2.2148-0.73828 2.7891l-43.395 25.047c-0.98438 0.57422-2.2148 0.21875-2.7891-0.73828-0.57422-0.98438-0.21875-2.2148 0.73828-2.7891l43.395-25.047c0.98437-0.57422 2.2148-0.21875 2.7891 0.73828zm-0.82031 0.46484c-0.30078-0.51953-0.95703-0.68359-1.4766-0.41016l-43.395 25.047c-0.51953 0.30078-0.71094 0.95703-0.41016 1.4766 0.30078 0.51953 0.95703 0.68359 1.4766 0.38281l43.395-25.047c0.51953-0.30078 0.68359-0.95703 0.41016-1.4766zm-116.16 59.746c0.57422 0.98437 0.21875 2.2148-0.73828 2.7891l-43.395 25.047c-0.98438 0.57422-2.2148 0.21875-2.7891-0.73828-0.57422-0.98438-0.21875-2.2422 0.73828-2.7891l43.395-25.047c0.98438-0.57422 2.2148-0.21875 2.7891 0.73828zm-0.82031 0.46484c-0.30078-0.51953-0.95703-0.68359-1.4766-0.41016l-43.395 25.047c-0.51953 0.30078-0.68359 0.95703-0.41016 1.4766 0.30078 0.51953 0.95703 0.68359 1.4766 0.38281l43.395-25.047c0.51953-0.30078 0.71094-0.95703 0.41016-1.4766zm0.82031-12.031c0.57422 0.98438 0.21875 2.2148-0.73828 2.7891l-43.395 25.047c-0.98438 0.57422-2.2148 0.21875-2.7891-0.73828-0.57422-0.98438-0.21875-2.2148 0.73828-2.7891l43.395-25.047c0.98438-0.57422 2.2148-0.21875 2.7891 0.73828zm-0.82031 0.46484c-0.30078-0.51953-0.95703-0.71094-1.4766-0.41016l-43.395 25.047c-0.51953 0.30078-0.68359 0.95703-0.41016 1.4766 0.30078 0.51953 0.95703 0.71094 1.4766 0.41016l43.395-25.047c0.51953-0.30078 0.71094-0.95703 0.41016-1.4766zm117.8-60.703c0.57422 0.98438 0.21875 2.2148-0.73828 2.7891l-43.395 25.047c-0.98438 0.57422-2.2148 0.21875-2.7891-0.73828-0.57422-0.98438-0.21875-2.2148 0.73828-2.7891l43.395-25.047c0.98437-0.57422 2.2148-0.21875 2.7891 0.73828zm-0.82031 0.46484c-0.30078-0.51953-0.95703-0.71094-1.4766-0.41016l-43.395 25.047c-0.51953 0.30078-0.71094 0.95703-0.41016 1.4766 0.30078 0.51953 0.95703 0.71094 1.4766 0.41016l43.395-25.047c0.51953-0.30078 0.68359-0.95703 0.41016-1.4766zm-31.418-94.359c8.2578 0 14.984 17.309 14.984 38.637 0 21.328-6.6992 38.637-14.984 38.637-8.2578 0-14.984-17.309-14.984-38.637 0-21.328 6.6992-38.637 14.984-38.637zm0 0.95703c-3.0352 0-5.7148 2.6523-7.9844 6.9453-3.6641 6.918-6.0156 18.129-6.0156 30.734 0 12.605 2.3516 23.789 6.0156 30.734 2.2695 4.293 4.9766 6.9453 7.9844 6.9453 3.0352 0 5.7148-2.6523 7.9844-6.9453 3.6641-6.918 6.0156-18.129 6.0156-30.734 0-12.605-2.3516-23.789-6.0156-30.734-2.2695-4.293-4.9766-6.9453-7.9844-6.9453zm-54.414 107.38c0.16406-0.082031 0.27344-0.19141 0.38281-0.32812 0.19141-0.27344 0.21875-0.60156 0.082031-0.90234 1.1758 2.9531 4.1562 4.7578 7.3008 4.457s5.7422-2.625 6.3438-5.7422l0.79297-4.0195c0.46484-2.4062-0.41016-4.8945-2.2969-6.4531s-4.4844-1.9688-6.7539-1.0664l-2.8164 1.1484-0.41016 0.082032 0.35547-0.082032c-1.6406 0.65625-2.9531 1.9414-3.6641 3.582-0.68359 1.6406-0.71094 3.4727-0.054687 5.1133l1.2031 2.9531-0.62891 0.92969c-0.082032-0.19141-0.19141-0.38281-0.24609-0.57422l-1.2031-2.9531c-0.76562-1.8867-0.73828-3.9922 0.054687-5.8516 0.79297-1.8594 2.2969-3.3359 4.1836-4.0742l2.8984-1.1758c2.5977-1.0391 5.5781-0.57422 7.7383 1.2031 2.1602 1.8047 3.1719 4.6211 2.625 7.3828l-0.79297 4.0195c-0.71094 3.5273-3.6367 6.1797-7.2188 6.5078-3.2539 0.30078-6.3438-1.3672-7.875-4.1836zm-136.25-113.56c-0.13672-0.24609-0.16406-0.54688-0.054688-0.79297l0.10938-0.30078v-0.027344h0.027343l35.465-97.152c2.2148-6.043 7.7109-10.281 14.137-10.828 6.4258-0.54688 12.578 2.6523 15.777 8.2578l26.742 46.539 40.441-23.352 32.539-96.77c1.5312-4.5391 5.4961-7.793 10.254-8.4219 4.7305-0.62891 9.4336 1.5312 12.059 5.5234l32.457 49.273 3.1719-1.832c5.6055-3.2266 9.0508-9.2148 9.0508-15.695 0-6.125-3.0898-11.812-8.1758-15.148-0.21875-0.13672-0.35547-0.35547-0.41016-0.60156l-37.68-22.012c-0.30078 0.19141-0.68359 0.21875-0.98438 0.027344l-184.81-106.7c-5.6055-3.2266-12.496-3.2266-18.102 0l-223.04 128.77c-5.6055 3.2266-9.0508 9.2148-9.0508 15.695s3.4453 12.441 9.0508 15.695l152.5 88.047c0.30078 0.16406 0.46484 0.46484 0.46484 0.79297l44.16 25.566-0.10938 0.4375-0.082031-0.054688-0.27344 0.4375-44.898-25.977 0.24609-0.38281-152.5-88.047c-5.9062-3.418-9.543-9.707-9.543-16.516 0-6.8086 3.6367-13.098 9.543-16.516l223.01-128.77c5.9062-3.418 13.18-3.418 19.059 0l184.81 106.7c-0.27344-0.30078-0.49219-0.65625-0.68359-1.0117l40.605 23.734c-0.27344-0.027344-0.51953-0.054688-0.79297-0.10938 5.3594 3.5 8.6133 9.4883 8.6133 15.941 0 6.8086-3.6367 13.098-9.543 16.516l-3.9375 2.2695-32.949-50.012c-2.4336-3.6914-6.7539-5.6602-11.129-5.0859s-8.0391 3.582-9.4609 7.7656l-32.648 97.098-41.59 24.008-27.207-47.359c-3.0352-5.25-8.832-8.2852-14.875-7.7656s-11.238 4.4844-13.316 10.199l-35.574 97.48-0.32812 0.19141c-0.16406 0.10938-0.32812 0.19141-0.51953 0.27344zm-43.969-14.957 0.24609-0.95703 25.621 14.793c5.6055 3.2266 12.523 3.2266 18.102 0-0.38281 0.21875-0.57422 0.65625-0.4375 1.0664 0.027344 0.082031 0.054688 0.13672 0.082031 0.21875-5.7422 2.9531-12.605 2.7891-18.238-0.46484l-25.402-14.656zm278.47-162.66-40.086-23.188c0.68359 0.054688 1.3672 0.27344 1.9961 0.62891l36.531 21.082c0.65625 0.38281 1.2031 0.875 1.5859 1.4766z" fill-rule="evenodd"/>
</svg>
